<?xml version="1.0" standalone="no"?>
<!DOCTYPE svg PUBLIC "-//W3C//DTD SVG 20010904//EN"
 "http://www.w3.org/TR/2001/REC-SVG-20010904/DTD/svg10.dtd">
<svg version="1.0" xmlns="http://www.w3.org/2000/svg"
 width="1080.000000pt" height="1080.000000pt" viewBox="0 0 1080.000000 1080.000000"
 preserveAspectRatio="xMidYMid meet">
<metadata>
Created by potrace 1.11, written by Peter Selinger 2001-2013
</metadata>
<g transform="translate(0.000000,1080.000000) scale(0.100000,-0.100000)"
fill="#000000" stroke="none">
<path d="M0 10745 c0 -30 1 -55 3 -55 1 0 36 7 77 15 53 11 80 22 92 38 10 12
22 27 28 34 5 7 10 15 10 18 0 3 -47 5 -105 5 l-105 0 0 -55z"/>
<path d="M284 10785 c5 -15 85 -149 176 -300 65 -107 335 -509 406 -605 35
-47 85 -114 111 -150 51 -68 280 -367 298 -386 5 -7 44 -56 85 -109 71 -92
141 -178 234 -290 44 -52 75 -88 246 -285 36 -41 79 -90 95 -109 17 -19 53
-60 80 -91 28 -31 84 -94 125 -140 41 -46 103 -113 136 -149 34 -37 77 -82 95
-103 83 -89 245 -261 328 -347 l91 -95 631 -2 c627 -2 632 -3 653 -24 20 -20
21 -30 24 -398 3 -396 -1 -442 -39 -463 -13 -7 -81 -10 -180 -10 -89 1 -159
-2 -159 -7 0 -5 64 -70 141 -143 78 -74 149 -141 158 -150 9 -8 48 -44 86 -79
39 -35 120 -109 180 -165 204 -188 184 -175 236 -162 l45 12 -38 50 c-51 68
-68 122 -68 220 0 71 4 90 30 143 37 73 91 124 174 163 l61 29 314 0 c279 0
317 -2 333 -17 17 -15 19 -15 36 0 17 15 60 17 415 17 384 0 398 -1 417 -20
18 -18 20 -33 20 -170 0 -147 -1 -152 -25 -175 -22 -23 -31 -25 -126 -25
l-102 0 7 -270 c5 -228 4 -275 -8 -299 -9 -16 -23 -31 -31 -35 -22 -8 -288 -8
-310 0 -40 16 -45 51 -45 334 l0 270 -93 0 c-68 0 -99 4 -115 16 -20 14 -24
14 -44 0 -12 -9 -36 -16 -52 -16 l-30 0 27 -27 c14 -16 40 -59 58 -96 29 -64
31 -74 27 -155 -3 -75 -9 -96 -38 -150 -39 -74 -93 -124 -169 -160 -52 -24
-106 -30 -266 -32 -23 0 -5 -17 240 -224 l149 -126 13 25 c20 37 72 48 211 44
111 -4 122 -6 146 -28 26 -24 26 -27 26 -165 l1 -141 31 60 c37 73 136 174
203 208 101 51 143 57 372 57 190 0 215 -2 231 -17 16 -17 18 -17 35 0 15 15
37 17 167 17 147 0 152 -1 175 -25 24 -23 25 -30 25 -150 l0 -125 80 0 80 0 0
125 c0 120 1 127 25 150 23 24 28 25 170 25 82 0 155 -5 166 -10 13 -7 25 -7
38 -1 31 17 747 27 795 11 58 -19 66 -48 59 -210 -8 -178 -10 -180 -154 -180
l-102 0 7 -270 c5 -228 4 -275 -8 -299 -9 -16 -23 -31 -31 -35 -22 -8 -288 -8
-310 0 -40 16 -45 51 -45 334 l0 270 -91 0 c-50 0 -99 5 -110 10 -19 10 -19 4
-19 -285 0 -349 7 -329 -115 -340 -42 -4 -110 -5 -151 -3 -60 4 -79 10 -99 28
-24 23 -25 28 -25 157 l0 133 -80 0 -80 0 0 -133 c0 -130 -1 -134 -26 -158
-22 -21 -36 -24 -130 -27 -125 -5 -189 3 -213 27 -17 17 -19 17 -30 -2 -10
-16 -10 -22 1 -32 13 -13 274 -187 413 -277 115 -74 159 -102 177 -113 10 -5
86 -51 170 -101 84 -50 196 -115 248 -144 52 -29 124 -70 160 -91 36 -20 115
-63 175 -94 124 -63 106 -65 -25 -3 -173 83 -418 207 -510 258 -263 145 -295
163 -300 169 -3 4 -25 17 -50 31 -64 34 -281 172 -443 279 l-137 92 -96 -3
-96 -3 113 -81 c225 -159 666 -442 829 -531 30 -17 98 -55 150 -85 176 -100
803 -408 831 -408 5 0 17 -4 27 -10 24 -13 110 -50 117 -50 3 0 24 -8 48 -19
56 -25 248 -103 287 -116 9 -3 45 -16 85 -32 290 -109 381 -143 388 -143 5 0
23 -6 40 -14 18 -8 73 -29 122 -46 273 -98 650 -248 846 -338 100 -45 302
-142 319 -153 8 -5 21 -11 28 -14 6 -3 18 -7 25 -10 6 -3 35 -19 62 -35 28
-17 58 -33 68 -36 9 -4 17 -10 17 -14 0 -4 10 -10 23 -14 12 -3 31 -13 42 -23
21 -19 79 -53 89 -53 3 0 6 54 6 119 l0 120 -46 30 c-25 17 -47 31 -49 31 -6
0 -139 84 -145 91 -3 3 -27 18 -55 33 -65 34 -112 61 -127 73 -7 5 -44 22 -83
37 -38 16 -79 33 -90 39 -11 6 -85 32 -165 58 -80 26 -203 68 -275 93 -71 25
-138 46 -147 46 -10 0 -18 5 -18 11 0 5 4 8 9 5 21 -13 318 -67 620 -112 90
-13 254 -42 363 -64 110 -22 201 -40 204 -40 2 0 4 250 4 555 l0 554 -87 27
c-49 14 -137 41 -198 59 -60 18 -144 43 -185 55 -113 33 -128 38 -106 39 15 1
517 -138 563 -156 10 -4 13 22 13 126 0 98 -3 131 -12 131 -19 0 -418 113
-414 117 4 4 137 -30 321 -81 50 -14 93 -26 98 -26 4 0 7 163 7 363 l0 362
-32 14 c-61 25 -123 56 -126 64 -2 4 -9 7 -16 7 -6 0 -61 24 -121 53 -113 55
-214 104 -320 152 -33 15 -118 56 -190 91 -71 35 -136 64 -142 64 -7 0 -13 4
-13 8 0 5 -18 15 -40 22 -22 7 -40 16 -40 20 0 3 -16 12 -36 19 -38 14 -149
66 -174 82 -8 5 -69 34 -135 64 -171 79 -210 99 -213 108 -2 4 -8 7 -13 7 -6
0 -76 32 -157 72 -128 62 -175 87 -268 145 -10 7 -39 24 -63 38 l-45 26 -100
-100 c-56 -54 -111 -104 -123 -110 -29 -15 -551 -15 -590 0 -15 5 -72 54 -125
107 l-98 97 0 -81 c0 -71 -3 -83 -23 -102 -22 -21 -33 -22 -175 -22 -201 0
-192 -9 -192 183 l-1 142 -31 -58 c-43 -79 -97 -138 -171 -187 -169 -110 -390
-109 -561 5 -76 50 -121 104 -170 205 -39 80 -41 91 -44 190 -4 92 -1 115 20
177 66 188 220 317 413 345 96 13 203 -4 294 -48 70 -34 189 -151 222 -220
l25 -50 0 138 c-1 188 -7 182 195 186 l150 4 -24 21 c-101 91 -161 143 -169
146 -6 2 -29 22 -52 45 -23 22 -93 88 -156 146 -116 107 -587 576 -694 691
-33 35 -99 106 -148 156 -48 51 -88 97 -88 101 0 5 -12 20 -27 34 -32 29 -113
118 -193 209 -30 35 -70 80 -89 99 -19 19 -61 67 -94 105 -33 39 -63 72 -66
75 -3 3 -22 25 -42 50 -20 25 -51 61 -68 80 -17 19 -31 38 -31 43 0 4 -7 7
-15 7 -8 0 -15 4 -15 10 0 5 -10 21 -22 36 -13 14 -23 29 -24 32 -2 20 -18 42
-29 42 -16 0 -30 33 -16 38 6 2 11 11 11 20 -1 15 -2 15 -15 -2 -15 -19 -35
-14 -35 9 0 8 -10 23 -22 35 -17 16 -19 20 -6 20 9 0 18 -6 20 -12 4 -10 10
-10 29 -1 24 12 24 12 2 12 -22 1 -23 5 -23 81 0 47 -4 80 -10 80 -6 0 -10 35
-11 83 -1 45 -3 74 -6 65 -3 -13 -15 -18 -44 -18 -37 0 -39 2 -39 31 l0 32
-50 -5 c-46 -5 -52 -3 -80 28 -16 19 -30 39 -30 45 0 6 -6 9 -14 6 -8 -3 -29
-2 -45 3 -18 5 -33 5 -36 -1 -9 -14 -25 -11 -25 5 0 8 7 16 15 20 18 7 20 26
2 26 -7 0 -18 9 -25 20 -17 28 -35 25 -29 -5 3 -16 0 -24 -7 -22 -6 2 -12 13
-14 26 -2 12 -14 29 -28 37 -13 9 -21 20 -18 25 3 5 2 14 -2 20 -4 8 -9 7 -15
-2 -7 -11 -9 -10 -9 4 0 9 -5 17 -10 17 -6 0 -20 16 -31 35 -12 19 -27 35 -34
35 -7 0 -20 15 -28 33 -9 17 -47 66 -86 107 -39 41 -71 78 -71 83 0 4 -20 28
-45 55 -25 26 -48 57 -51 70 -4 12 -12 22 -20 22 -8 0 -14 5 -14 12 0 7 -11
24 -25 38 -14 14 -49 54 -78 90 -28 36 -80 94 -114 129 -35 35 -63 68 -63 72
0 5 -9 14 -20 21 -11 7 -20 18 -20 25 0 7 -7 13 -15 13 -8 0 -15 4 -15 9 0 14
-106 121 -119 121 -6 0 -11 7 -11 15 0 8 -7 15 -15 15 -8 0 -15 6 -15 13 0 8
-11 20 -25 27 -14 7 -25 17 -25 21 0 3 -21 29 -47 55 -27 27 -53 58 -59 68 -6
11 -19 24 -30 30 -29 17 -64 55 -64 72 0 12 -230 14 -1761 14 -1575 0 -1761
-2 -1755 -15z m4996 -1575 c0 -5 -5 -10 -11 -10 -5 0 -7 5 -4 10 3 6 8 10 11
10 2 0 4 -4 4 -10z m5060 -5020 c20 -6 21 -8 5 -8 -11 0 -29 3 -40 8 -25 11 1
11 35 0z m-2295 -760 c3 -6 -1 -7 -9 -4 -18 7 -21 14 -7 14 6 0 13 -4 16 -10z"/>
<path d="M0 10338 l0 -196 39 -31 c115 -91 366 -342 691 -690 167 -180 318
-339 472 -496 69 -71 150 -155 178 -185 50 -53 864 -871 1027 -1033 l79 -77
78 -5 c42 -2 86 -1 96 3 15 6 -48 74 -338 368 -713 721 -1138 1165 -1517 1584
-27 30 -52 57 -55 60 -8 8 -181 200 -201 224 -113 133 -239 284 -259 311 -30
40 -258 324 -277 345 -11 12 -13 -19 -13 -182z"/>
<path d="M5020 9445 c0 -8 5 -15 10 -15 6 0 10 7 10 15 0 8 -4 15 -10 15 -5 0
-10 -7 -10 -15z"/>
<path d="M0 7120 l0 -1855 128 -135 c332 -354 641 -701 973 -1094 46 -55 107
-127 134 -161 28 -33 77 -94 110 -134 213 -259 507 -640 728 -946 48 -66 91
-124 95 -130 58 -76 361 -524 472 -700 35 -55 78 -122 95 -150 79 -122 308
-507 444 -745 46 -80 92 -157 102 -172 11 -15 19 -29 19 -31 0 -7 118 -206
207 -352 126 -204 210 -333 281 -427 l66 -88 173 0 173 0 -12 28 c-7 15 -16
32 -20 38 -5 7 -1 25 11 45 11 19 29 53 40 75 10 23 37 60 59 82 60 60 100 66
382 59 201 -6 245 -10 305 -28 39 -12 89 -24 113 -26 23 -3 42 -8 42 -12 0 -4
21 -8 48 -8 46 0 143 -17 272 -47 36 -8 99 -22 140 -31 41 -9 103 -25 136 -36
34 -10 81 -19 105 -19 24 0 62 -9 84 -19 22 -10 64 -24 93 -31 31 -7 66 -24
85 -41 l31 -29 2088 0 c1149 0 2088 4 2088 8 0 12 -34 28 -104 49 -32 9 -61
23 -63 30 -3 7 -14 13 -24 13 -10 0 -19 4 -19 9 0 5 -12 14 -27 19 -26 10 -25
10 17 11 25 1 90 -4 145 -9 55 -6 188 -19 295 -30 107 -11 216 -23 243 -26
l47 -6 -2 622 -3 621 -60 33 c-102 55 -216 116 -310 166 -49 27 -115 61 -145
78 -30 16 -91 48 -135 72 -44 23 -109 58 -145 77 -36 18 -72 38 -80 43 -8 5
-44 25 -80 43 -202 104 -235 122 -240 129 -3 4 -27 17 -54 28 -26 12 -46 23
-44 26 5 5 195 -42 223 -55 11 -5 38 -12 60 -15 45 -7 200 -42 455 -103 58
-13 124 -27 148 -30 23 -3 45 -10 48 -14 3 -5 18 -9 33 -9 15 0 69 -9 121 -21
52 -12 121 -27 153 -33 l57 -13 0 72 0 72 -117 28 c-65 15 -138 34 -163 41
-25 7 -76 20 -115 28 -84 19 -501 126 -600 154 -181 51 -328 91 -350 96 -84
20 -607 194 -619 207 -6 5 -18 9 -28 9 -9 0 -34 7 -55 16 -67 29 -147 62 -193
79 -25 10 -56 22 -70 28 -14 5 -34 13 -45 17 -27 10 -219 104 -225 110 -3 3
-39 22 -80 44 -178 92 -321 170 -509 280 -62 36 -115 66 -118 66 -2 0 -16 8
-31 19 -33 22 -239 150 -267 165 -72 39 -572 375 -760 511 -156 113 -546 405
-555 415 -3 3 -52 42 -110 86 l-105 81 -140 -5 c-112 -3 -147 -1 -177 11 -33
14 -43 14 -70 2 -27 -10 -107 -12 -415 -8 -372 6 -383 7 -402 27 -18 20 -19
41 -22 473 -4 444 -3 452 17 480 l21 28 -50 45 c-27 25 -63 59 -81 75 -90 87
-254 235 -260 235 -3 0 -6 -382 -6 -850 l0 -850 732 0 732 0 28 -27 28 -27 0
-395 c-1 -417 0 -415 -47 -439 -16 -9 -207 -12 -713 -12 l-692 0 17 -27 c10
-16 35 -45 56 -65 22 -21 39 -41 39 -45 0 -10 249 -254 305 -298 28 -22 69
-58 92 -80 23 -22 63 -58 88 -80 26 -22 58 -50 72 -62 13 -13 27 -23 30 -23 3
0 24 -18 45 -40 22 -22 46 -40 53 -40 8 0 18 -6 22 -13 4 -8 35 -35 68 -62 33
-26 62 -51 65 -54 3 -3 17 -12 31 -19 14 -7 41 -28 61 -45 46 -42 67 -58 99
-79 14 -9 33 -23 41 -30 20 -19 50 -38 71 -44 9 -4 17 -13 17 -20 0 -8 5 -14
10 -14 6 0 39 -21 73 -48 34 -26 76 -56 92 -66 17 -10 94 -65 172 -122 77 -57
144 -104 147 -104 3 0 15 -8 25 -18 22 -19 40 -32 64 -47 9 -5 43 -29 77 -52
33 -24 64 -43 69 -43 4 0 16 -9 26 -20 10 -11 24 -20 31 -20 7 0 14 -4 16 -8
2 -5 32 -28 68 -52 36 -24 71 -49 78 -56 7 -7 48 -34 92 -60 44 -26 80 -51 80
-56 0 -4 6 -8 13 -8 8 0 22 -9 31 -19 10 -11 31 -25 47 -31 17 -7 29 -20 29
-31 0 -10 9 -21 20 -24 11 -3 20 -12 20 -19 0 -7 9 -21 20 -31 11 -10 20 -24
20 -32 0 -7 9 -13 20 -13 13 0 20 -7 20 -20 0 -11 5 -20 10 -20 6 0 10 -7 10
-15 0 -9 7 -18 15 -21 17 -7 21 -84 4 -84 -6 0 -18 -7 -27 -16 -13 -14 -31
-16 -105 -11 -49 2 -94 10 -100 16 -6 6 -24 11 -39 11 -28 0 -167 40 -218 62
-14 6 -29 12 -35 14 -21 5 -102 44 -150 73 -27 17 -57 34 -65 37 -28 13 -225
139 -228 146 -2 5 -9 8 -16 8 -7 0 -33 15 -57 32 -24 18 -83 58 -131 89 -48
31 -102 68 -120 82 -33 26 -83 61 -193 138 -33 23 -78 56 -101 75 -22 18 -87
67 -145 110 -57 42 -118 89 -135 103 -17 14 -47 38 -65 53 -112 89 -161 128
-208 168 -131 111 -276 235 -281 240 -3 3 -21 18 -40 34 -37 30 -137 118 -229
201 -68 62 -101 90 -216 191 -87 76 -145 128 -169 149 -47 43 -218 198 -255
233 l-46 42 -102 0 c-95 0 -104 2 -132 26 -31 25 -31 27 -31 118 l0 93 -47 43
c-27 24 -82 75 -123 114 -41 39 -114 107 -161 151 -363 338 -600 567 -989 952
l-236 233 -55 0 c-78 0 -99 23 -99 111 0 35 -6 73 -13 85 -6 12 -64 86 -127
165 -115 144 -269 347 -306 404 l-19 30 31 -25 c17 -14 45 -36 64 -50 18 -14
39 -31 47 -38 33 -33 180 -146 222 -170 25 -14 48 -30 49 -34 2 -4 12 -8 23
-8 18 0 19 9 17 195 -2 122 1 198 7 203 22 16 36 55 30 84 -9 39 -188 394
-275 543 -19 33 -42 76 -51 95 -9 19 -55 98 -102 175 -47 77 -102 172 -123
210 -20 39 -43 77 -50 86 -8 8 -14 19 -14 22 0 4 -18 36 -40 72 -22 36 -40 72
-40 80 0 8 -4 15 -9 15 -5 0 -19 19 -31 43 -11 23 -38 71 -60 107 -21 36 -53
94 -71 130 -18 36 -54 102 -80 147 -26 44 -58 103 -72 130 -13 26 -36 69 -50
96 -14 26 -23 47 -20 47 2 0 -5 15 -16 34 -22 35 -27 51 -13 42 4 -2 6 11 4
30 -2 19 -8 34 -13 34 -8 0 -15 23 -40 135 -7 33 -23 83 -36 110 -12 28 -23
59 -23 70 0 11 -11 43 -25 70 -13 28 -25 60 -25 72 0 12 -7 28 -15 37 -8 8
-15 22 -15 31 0 16 -41 124 -60 158 -13 23 -44 109 -61 170 -7 26 -18 47 -25
47 -6 0 -16 24 -23 53 -6 28 -18 63 -26 77 -12 22 -14 -223 -15 -1830z m390
764 c0 -8 -4 -12 -10 -9 -5 3 -10 10 -10 16 0 5 5 9 10 9 6 0 10 -7 10 -16z
m7 -450 c24 -43 48 -91 54 -106 6 -16 15 -28 20 -28 5 0 9 -6 9 -14 0 -8 35
-88 78 -178 111 -229 142 -297 142 -309 0 -5 4 -17 9 -27 5 -9 13 -28 19 -42
5 -14 15 -38 21 -53 14 -35 14 -74 1 -82 -6 -4 -8 -10 -6 -13 2 -4 0 -43 -5
-88 -9 -80 -6 -105 33 -316 15 -85 6 -100 -47 -75 -32 15 -62 58 -56 81 1 5
-5 16 -13 25 -8 9 -17 27 -20 41 -3 14 -12 47 -21 74 -8 27 -15 64 -15 81 0
18 -6 48 -14 66 -8 19 -17 57 -21 84 -4 28 -11 55 -15 60 -4 6 -15 44 -24 85
-9 41 -21 89 -27 107 -7 22 -7 44 0 69 9 33 8 39 -14 56 -27 21 -32 44 -12 51
8 3 6 9 -7 19 -17 14 -38 94 -37 143 0 11 -6 30 -14 42 -8 12 -15 29 -15 38 0
8 -4 23 -9 33 -15 27 -32 112 -25 123 3 5 0 16 -6 24 -6 8 -10 30 -7 49 3 24
0 36 -9 40 -17 6 -19 29 -2 24 6 -2 31 -40 55 -84z m-252 -1002 c-7 -7 -45 29
-45 41 0 6 11 0 25 -13 14 -13 23 -26 20 -28z m25 -57 c0 -5 -5 -3 -10 5 -5 8
-10 20 -10 25 0 6 5 3 10 -5 5 -8 10 -19 10 -25z m35 -15 c3 -5 -1 -10 -9 -10
-9 0 -16 5 -16 10 0 6 4 10 9 10 6 0 13 -4 16 -10z m70 -100 c9 0 13 -5 10
-10 -5 -8 -11 -7 -20 0 -8 7 -18 10 -22 7 -4 -3 -9 11 -10 32 l-2 36 14 -32
c8 -18 21 -33 30 -33z m15 -45 c0 -8 5 -15 10 -15 6 0 10 5 10 11 0 6 11 -3
25 -19 14 -17 25 -35 25 -41 0 -6 5 -11 12 -11 9 0 9 -3 1 -11 -16 -16 -35 -1
-28 22 4 11 2 19 -4 19 -6 0 -11 -4 -11 -10 0 -10 -16 4 -54 48 -17 19 -17 22
-3 22 10 0 17 -7 17 -15z m108 -97 c-2 -6 11 -26 29 -44 18 -18 33 -38 33 -43
0 -5 7 -11 15 -15 8 -3 15 -11 15 -18 0 -7 -27 14 -59 46 -47 46 -57 61 -48
72 15 17 20 17 15 2z m116 -144 c3 -8 2 -12 -4 -9 -6 3 -10 10 -10 16 0 14 7
11 14 -7z"/>
<path d="M310 6191 c0 -6 4 -13 10 -16 6 -3 7 1 4 9 -7 18 -14 21 -14 7z"/>
<path d="M619 8613 c-41 -25 -61 -78 -67 -168 -3 -68 1 -101 32 -220 36 -142
75 -260 116 -350 54 -118 161 -341 170 -355 5 -8 24 -42 40 -75 17 -33 34 -62
38 -65 4 -3 16 -25 27 -50 10 -25 25 -52 32 -61 7 -8 13 -20 13 -26 0 -6 3
-13 8 -15 10 -5 152 -241 152 -255 0 -6 4 -13 8 -15 8 -3 66 -84 73 -103 2 -5
31 -50 64 -100 72 -109 75 -114 99 -156 10 -19 31 -50 46 -69 15 -19 30 -42
34 -50 3 -8 4 8 1 35 -35 327 9 525 161 730 107 145 299 291 424 325 14 3 25
11 25 17 0 11 -123 129 -285 273 -46 41 -111 100 -144 131 -68 62 -281 249
-366 320 -55 46 -86 69 -215 158 -68 47 -258 131 -296 131 -10 0 -44 7 -76 15
-71 19 -82 18 -114 -2z"/>
<path d="M2240 7500 c-145 -33 -260 -94 -384 -202 -35 -30 -48 -37 -43 -23 19
52 -106 -112 -147 -192 -56 -112 -96 -270 -96 -383 0 -61 24 -191 49 -271 65
-199 255 -404 463 -498 142 -64 148 -65 670 -71 l476 -5 26 -24 c22 -21 26
-33 26 -79 0 -38 -5 -61 -17 -74 -16 -18 -7 -25 13 -10 5 4 -3 -5 -18 -21
l-29 -27 -829 2 -830 3 0 -357 0 -358 860 0 860 0 -3 -862 -2 -863 1128 -3
1127 -2 0 362 0 363 -460 -3 c-282 -1 -460 -6 -460 -12 0 -5 7 -6 17 -3 11 4
14 3 9 -5 -4 -7 -1 -13 6 -13 7 -1 20 -3 28 -4 8 -1 21 -3 28 -4 7 0 10 -5 7
-11 -3 -6 0 -11 7 -11 7 -1 20 -3 28 -4 8 -1 21 -3 28 -4 7 0 11 -5 8 -10 -8
-12 20 -22 41 -14 10 4 14 2 10 -4 -9 -14 38 -34 60 -26 10 4 14 2 10 -4 -8
-12 20 -26 34 -17 5 3 9 1 9 -5 0 -6 7 -7 17 -4 11 4 14 3 9 -5 -4 -7 -1 -13
6 -13 7 -1 20 -3 28 -4 8 -1 21 -3 28 -4 7 0 11 -5 8 -10 -8 -12 20 -22 41
-14 10 4 14 2 10 -4 -9 -14 38 -34 60 -26 10 4 14 2 10 -4 -8 -12 20 -26 34
-17 5 3 9 1 9 -5 0 -6 7 -7 17 -4 11 4 14 3 9 -5 -4 -7 -1 -13 6 -13 7 -1 20
-3 28 -4 8 -1 21 -3 28 -4 7 0 11 -5 8 -10 -8 -12 20 -22 41 -14 10 4 14 2 10
-4 -9 -14 38 -34 60 -26 10 4 14 2 10 -4 -8 -12 20 -26 34 -17 5 3 9 1 9 -5 0
-6 7 -7 17 -4 12 5 14 3 8 -7 -6 -10 -4 -12 7 -7 14 5 16 -13 18 -154 l1 -159
-1110 0 -1111 0 -2 581 c-2 319 0 583 5 586 4 2 7 22 7 45 0 32 3 39 16 34 9
-3 18 -6 20 -6 3 0 2 -4 -1 -10 -3 -5 0 -11 7 -11 7 -1 20 -3 28 -4 8 -1 21
-3 28 -4 7 0 11 -5 8 -10 -8 -12 20 -22 41 -14 10 4 14 2 10 -4 -9 -14 38 -34
60 -26 10 4 14 2 10 -4 -8 -12 20 -26 34 -17 5 3 9 1 9 -5 0 -6 7 -7 17 -4 11
4 14 3 9 -5 -4 -7 -1 -13 6 -13 7 -1 20 -3 28 -4 8 -1 21 -3 28 -4 7 0 11 -5
8 -10 -8 -12 20 -22 41 -14 10 4 14 2 10 -4 -9 -14 38 -34 60 -26 10 4 14 2
10 -4 -8 -12 20 -26 34 -17 5 3 9 1 9 -5 0 -6 7 -7 17 -4 11 4 14 3 9 -5 -4
-7 -1 -13 6 -13 7 -1 20 -3 28 -4 8 -1 21 -3 28 -4 7 0 11 -5 8 -10 -8 -12 20
-22 41 -14 11 4 14 3 9 -5 -4 -7 -2 -12 3 -12 7 0 11 -39 11 -110 0 -69 4
-110 10 -110 17 0 8 1932 -9 1985 -7 22 -16 57 -22 78 -5 21 -13 45 -18 55 -5
9 -21 42 -36 72 -38 76 -104 166 -162 220 l-48 45 48 -50 c71 -76 56 -76 -24
0 -122 115 -243 180 -398 215 -84 18 -126 20 -533 20 l-443 0 -25 23 c-14 12
-20 18 -13 13 18 -12 16 -2 -7 36 -24 39 -25 69 -5 108 33 64 -21 60 877 60
l818 0 0 248 c0 137 3 297 7 355 4 70 3 107 -4 107 -6 0 -13 -82 -17 -217 -4
-120 -9 -220 -11 -221 -2 -2 -238 96 -525 217 l-522 221 -311 -1 c-257 -1
-325 -4 -387 -19z m-460 -285 c-13 -14 -26 -23 -28 -20 -3 3 5 16 18 30 13 14
26 23 28 20 3 -3 -5 -16 -18 -30z m2060 -975 c0 -5 -2 -10 -4 -10 -3 0 -8 5
-11 10 -3 6 -1 10 4 10 6 0 11 -4 11 -10z m-2203 -1083 c11 4 14 2 9 -5 -4 -7
-1 -13 6 -13 7 -1 20 -3 28 -4 8 -1 21 -3 28 -4 7 0 10 -5 7 -11 -3 -5 0 -11
7 -11 7 -1 20 -3 28 -4 8 -1 21 -3 28 -4 7 0 11 -5 8 -10 -8 -12 20 -22 41
-14 10 4 14 2 10 -4 -8 -12 20 -26 34 -17 5 3 9 1 9 -5 0 -6 7 -7 17 -4 10 4
14 2 10 -4 -8 -12 20 -26 34 -17 5 3 9 1 9 -5 0 -6 7 -7 17 -4 11 4 14 3 9 -5
-4 -7 -1 -13 6 -13 7 -1 20 -3 28 -4 8 -1 21 -3 28 -4 7 0 11 -5 8 -10 -8 -12
20 -22 41 -14 12 5 14 3 8 -7 -6 -10 -4 -12 9 -7 11 5 15 3 10 -5 -5 -8 -2 -9
10 -5 10 4 15 3 11 -3 -4 -6 -109 -10 -276 -10 l-269 0 0 114 c0 83 3 116 13
119 6 2 13 0 15 -4 2 -4 10 -5 19 -2z"/>
<path d="M2403 6724 c-18 -8 -16 -41 3 -48 25 -10 647 -7 663 3 11 7 7 13 -15
27 -26 17 -55 19 -334 21 -168 1 -311 -1 -317 -3z"/>
<path d="M3436 6721 c-9 -14 116 -119 201 -169 91 -53 260 -215 319 -307 22
-33 54 -73 73 -90 19 -16 69 -62 110 -102 143 -135 304 -272 312 -267 5 3 9
36 9 74 l0 68 -92 83 c-125 114 -225 208 -333 311 -50 48 -100 95 -111 105
-12 10 -85 79 -164 153 -78 74 -149 138 -158 142 -25 10 -160 9 -166 -1z"/>
<path d="M5304 6536 c-4 -11 -12 -12 -33 -5 -16 6 -136 9 -283 7 l-255 -3 -49
-30 c-28 -18 -63 -52 -83 -80 -20 -31 -31 -40 -26 -25 4 14 12 31 18 38 5 7 7
15 4 18 -2 3 -17 -20 -32 -50 -54 -111 -20 -244 83 -323 60 -46 97 -53 268
-53 165 0 182 -5 170 -55 -4 -15 -2 -25 4 -25 6 0 8 -4 5 -10 -10 -16 -542
-13 -548 3 -3 6 -6 -41 -6 -105 l-1 -118 288 0 c325 0 334 2 411 79 55 55 73
95 79 171 3 53 0 76 -18 118 -12 29 -26 52 -31 52 -5 0 -6 -6 -3 -14 3 -7 -17
8 -45 35 -69 67 -116 79 -302 79 -88 0 -150 4 -154 10 -3 6 -1 10 5 10 7 0 9
8 5 19 -3 10 -3 26 1 35 5 14 35 16 275 16 l269 0 0 110 c0 105 -4 128 -16 96z"/>
<path d="M5460 6441 l0 -111 120 0 120 0 0 -305 0 -305 120 0 120 0 -7 248
c-3 136 -3 273 1 305 l7 57 120 0 119 0 0 111 c0 71 -4 108 -10 104 -6 -3 -10
-48 -10 -101 l0 -94 -119 0 -119 0 -6 -44 -7 -44 -92 40 c-51 21 -147 62 -214
90 l-123 51 0 48 c0 26 -4 51 -10 54 -6 4 -10 -33 -10 -104z"/>
<path d="M8784 6138 l-413 -411 -247 6 -248 6 -152 152 c-123 123 -156 150
-175 147 -24 -3 -24 -3 -27 -150 l-3 -148 -94 0 -95 0 -1 283 c-1 155 -5 336
-9 402 -4 81 -7 -14 -8 -292 l-2 -413 115 0 115 0 0 150 c0 113 3 150 12 150
7 0 81 -68 163 -150 l151 -151 260 -5 259 -6 420 421 c231 232 413 421 405
421 -8 0 -200 -185 -426 -412z"/>
<path d="M8360 6272 c76 -77 139 -134 145 -129 11 9 -243 267 -264 267 -9 0
45 -62 119 -138z"/>
<path d="M6650 6328 c-65 -34 -102 -86 -108 -153 -2 -30 -1 -62 3 -72 5 -10 8
-20 7 -23 0 -3 8 -17 19 -30 l19 -25 -15 37 c-27 68 -13 160 33 212 47 53 154
70 227 37 82 -37 113 -101 102 -209 -6 -53 -5 -54 9 -28 17 33 19 113 3 153
-39 105 -191 156 -299 101z"/>
<path d="M7527 6343 c-11 -10 -8 -61 3 -68 6 -4 10 7 10 25 l0 31 152 -3 c148
-3 153 -4 164 -26 9 -17 13 -20 17 -9 3 8 -1 24 -9 36 -14 20 -24 21 -173 21
-87 0 -161 -3 -164 -7z"/>
<path d="M8082 6309 c-4 -89 -72 -193 -153 -235 -47 -23 -61 -45 -39 -59 6 -3
10 0 10 8 0 8 18 22 40 32 89 40 153 146 147 243 -3 52 -3 53 -5 11z"/>
<path d="M6340 6239 c-46 -190 55 -396 237 -482 63 -30 76 -32 173 -32 97 0
110 2 170 31 95 45 162 111 207 202 35 69 38 85 41 171 3 63 0 93 -6 86 -6 -5
-12 -44 -14 -86 -3 -63 -9 -88 -40 -151 -37 -75 -112 -158 -142 -158 -17 0
-316 125 -553 230 l-61 28 -4 72 c-1 40 0 74 3 76 6 3 10 64 4 64 -2 0 -9 -23
-15 -51z"/>
<path d="M6692 6231 c-91 -58 -49 -201 59 -201 33 0 47 6 75 34 28 28 34 42
34 75 0 86 -94 137 -168 92z"/>
<path d="M8139 6138 c-11 -24 -42 -64 -67 -91 l-46 -47 54 -55 53 -54 93 91
93 92 -37 25 c-20 14 -43 31 -50 38 -8 7 -27 20 -43 28 -28 15 -29 15 -50 -27z"/>
<path d="M1925 5871 c30 -42 68 -93 86 -114 l31 -37 577 2 576 3 0 25 0 25
-480 6 c-406 5 -488 8 -535 22 -109 34 -145 50 -263 118 l-45 26 53 -76z"/>
<path d="M4620 5626 c0 -7 378 -332 604 -519 44 -36 83 -64 88 -61 9 6 9 88 0
121 -4 13 -43 53 -87 90 -97 80 -278 236 -285 244 -3 3 -37 33 -77 67 l-72 62
-85 0 c-48 0 -86 -2 -86 -4z"/>
<path d="M4541 4843 l-1 -423 360 0 360 0 -1 118 c0 64 -3 111 -6 105 -6 -16
-488 -19 -498 -3 -3 6 -1 10 4 10 8 0 11 98 11 307 0 239 -3 304 -12 295 -17
-17 -205 -17 -211 1 -3 6 -6 -178 -6 -410z"/>
<path d="M5401 4843 l-1 -423 115 0 115 0 0 422 c0 328 -3 419 -12 410 -17
-17 -205 -17 -211 1 -3 6 -6 -178 -6 -410z"/>
<path d="M6480 5251 c0 -5 -84 -11 -192 -13 -193 -3 -193 -3 -260 -35 -46 -21
-69 -28 -72 -20 -3 7 -4 5 -3 -4 1 -8 -16 -30 -38 -49 -30 -26 -34 -27 -16 -7
14 15 22 29 19 32 -11 11 -81 -80 -112 -145 -29 -60 -31 -73 -31 -170 0 -97 2
-110 32 -173 42 -89 121 -168 210 -210 l68 -32 203 -3 202 -3 -1 273 c0 150
-3 267 -6 261 -3 -10 -41 -13 -138 -13 -97 0 -135 3 -138 13 -3 6 -6 -41 -6
-105 l-1 -118 29 0 c28 0 29 -2 33 -50 l3 -50 -68 0 c-74 0 -127 20 -162 61
l-20 24 21 -17 c30 -26 41 -22 16 5 -50 53 -66 145 -37 214 41 97 82 112 303
113 l172 0 0 115 c0 63 -2 115 -5 115 -3 0 -5 -4 -5 -9z"/>
<path d="M6854 5250 c-7 -7 -47 -10 -113 -8 l-101 3 0 -412 0 -413 115 0 115
0 0 155 0 155 160 0 160 0 0 -155 0 -155 115 0 115 0 0 413 0 412 -101 -3
c-70 -2 -105 0 -115 9 -14 11 -15 -6 -12 -149 l3 -162 -165 0 -165 0 3 117 c4
155 1 208 -14 193z"/>
<path d="M7560 5138 l0 -108 120 0 120 0 0 -305 0 -305 120 0 120 0 -7 238
c-3 130 -3 267 1 305 l8 67 119 0 119 0 0 108 0 107 -360 0 -360 0 0 -107z"/>
<path d="M1 5145 l0 -100 86 -100 c124 -145 119 -139 227 -269 192 -231 512
-643 601 -772 11 -16 43 -60 71 -99 110 -150 305 -440 419 -625 32 -52 68
-111 81 -130 96 -149 335 -604 399 -760 15 -36 35 -83 45 -105 99 -219 237
-678 269 -892 10 -66 14 -230 4 -173 -72 418 -126 624 -244 931 -82 213 -237
548 -324 699 -18 30 -45 78 -60 105 -15 28 -57 101 -94 163 -36 62 -70 120
-76 130 -93 162 -445 678 -585 858 -30 39 -66 86 -80 104 -72 96 -195 256
-200 260 -3 3 -21 25 -40 50 -55 71 -250 310 -307 376 -28 32 -83 96 -122 142
l-71 83 0 -1425 0 -1425 37 -28 c45 -34 55 -43 69 -68 6 -11 38 -40 72 -65 34
-25 61 -51 62 -57 0 -7 8 -13 18 -13 19 -1 62 -33 62 -48 0 -13 24 -22 58 -22
18 0 23 -3 14 -8 -16 -11 8 -33 55 -52 18 -7 33 -16 33 -21 0 -5 4 -9 10 -9 5
0 19 -9 31 -21 11 -11 26 -18 33 -16 7 3 26 -5 42 -19 16 -13 32 -23 37 -24 4
0 15 -8 26 -18 10 -9 49 -44 87 -77 153 -133 382 -385 449 -494 6 -9 12 -18
16 -21 3 -3 16 -23 29 -45 14 -22 35 -50 47 -63 13 -13 23 -27 23 -32 0 -11
43 -76 74 -110 12 -14 21 -31 19 -37 -2 -6 7 -27 19 -46 23 -36 38 -46 38 -27
0 6 -4 10 -8 10 -11 0 -35 97 -27 110 3 5 43 10 91 10 77 0 84 2 84 20 0 17
-7 20 -40 20 -22 0 -40 5 -40 10 0 6 18 10 40 10 22 0 40 -4 40 -10 0 -5 18
-10 40 -10 33 0 40 3 40 20 0 18 7 20 80 20 73 0 80 2 80 20 0 18 7 20 80 20
l80 0 0 38 c0 31 7 45 40 77 36 35 39 44 43 99 2 34 3 15 3 -40 -1 -72 2 -100
10 -97 13 5 29 146 19 163 -3 5 -2 17 3 26 6 11 12 -20 17 -97 12 -185 14
-329 6 -329 -5 0 -12 -51 -15 -113 -7 -109 -21 -182 -38 -202 -4 -5 -8 -21 -8
-36 0 -15 -7 -34 -15 -42 -8 -8 -17 -34 -21 -57 -4 -22 -24 -68 -45 -100 -21
-33 -45 -72 -53 -87 -8 -15 -26 -41 -41 -58 -14 -16 -38 -44 -53 -60 -15 -17
-33 -38 -41 -48 -13 -16 38 -17 939 -17 l952 0 -35 63 c-19 34 -54 100 -77
147 -56 111 -207 395 -372 705 -69 128 -175 320 -241 437 -15 26 -25 53 -24
60 2 7 2 9 -1 5 -7 -13 -63 76 -57 91 3 7 0 10 -5 7 -6 -3 -10 -2 -10 2 0 5
-16 36 -36 69 -20 32 -49 83 -65 113 -55 100 -319 515 -440 691 -67 96 -136
198 -154 225 -18 28 -50 73 -72 102 -21 28 -45 61 -53 73 -8 13 -51 70 -94
129 -44 58 -108 144 -143 191 -35 47 -69 92 -76 100 -7 8 -50 65 -97 125 -107
140 -330 418 -420 525 -8 10 -22 27 -30 37 -239 288 -652 763 -816 938 -25 28
-87 95 -138 150 -50 55 -126 136 -168 180 l-77 80 0 -100z m2026 -3417 c-3 -8
-6 -5 -6 6 -1 11 2 17 5 13 3 -3 4 -12 1 -19z m60 -225 c-3 -10 -5 -4 -5 12 0
17 2 24 5 18 2 -7 2 -21 0 -30z m10 -70 c-3 -10 -5 -2 -5 17 0 19 2 27 5 18 2
-10 2 -26 0 -35z m13 -123 c0 -5 -4 -10 -10 -10 -5 0 -10 5 -10 10 0 6 5 10
10 10 6 0 10 -4 10 -10z m-670 -420 c0 -5 -11 -10 -25 -10 -14 0 -25 5 -25 10
0 6 11 10 25 10 14 0 25 -4 25 -10z"/>
<path d="M4850 4875 l0 -145 170 0 c94 0 170 2 170 4 0 6 -327 286 -334 286
-3 0 -6 -65 -6 -145z"/>
<path d="M6094 4883 c-13 -30 -14 -44 -5 -75 20 -65 31 -54 31 31 0 45 -2 81
-6 81 -3 0 -12 -17 -20 -37z"/>
<path d="M2736 4821 c-5 -8 23 -51 54 -83 8 -9 40 -48 70 -87 30 -39 58 -71
62 -71 5 0 8 -6 8 -13 0 -7 8 -19 18 -28 9 -8 33 -35 52 -59 19 -24 40 -48 45
-54 6 -6 26 -31 45 -56 19 -24 51 -62 71 -83 l36 -39 6 107 c4 60 7 191 7 292
l0 183 -234 0 c-129 0 -237 -4 -240 -9z"/>
<path d="M3030 1280 c6 -11 13 -20 16 -20 2 0 0 9 -6 20 -6 11 -13 20 -16 20
-2 0 0 -9 6 -20z"/>
<path d="M3121 1120 c12 -22 24 -38 26 -36 4 4 -37 76 -44 76 -2 0 6 -18 18
-40z"/>
<path d="M0 942 l0 -128 104 -52 c101 -51 231 -108 271 -119 11 -4 22 -9 25
-12 13 -15 213 -82 400 -132 43 -12 113 -24 245 -44 116 -17 260 -11 287 12 9
8 22 12 28 8 6 -3 25 -2 43 4 32 11 32 12 34 80 l1 68 -150 6 c-83 4 -155 10
-162 15 -6 5 -33 12 -61 16 -124 15 -167 25 -160 36 4 6 -7 10 -22 10 -16 0
-38 7 -49 15 -10 8 -29 15 -41 15 -12 0 -25 4 -28 10 -3 5 -34 18 -68 29 -34
11 -84 30 -112 44 -27 13 -68 30 -90 37 -22 7 -53 19 -70 28 -16 8 -38 19 -48
24 -9 4 -45 19 -80 32 -34 13 -110 47 -168 75 -59 28 -111 51 -118 51 -8 0
-11 -39 -11 -128z"/>
<path d="M3194 995 c24 -44 55 -100 68 -125 14 -25 79 -144 145 -265 260 -477
334 -605 351 -605 12 0 11 5 -4 28 -25 38 -166 281 -259 447 -43 77 -110 196
-149 265 -38 69 -91 163 -117 210 -26 47 -55 94 -63 105 -9 11 4 -16 28 -60z"/>
<path d="M1440 540 c0 -33 3 -40 20 -40 17 0 20 7 20 40 0 33 -3 40 -20 40
-17 0 -20 -7 -20 -40z"/>
<path d="M160 556 c0 -2 7 -7 16 -10 8 -3 12 -2 9 4 -6 10 -25 14 -25 6z"/>
</g>
</svg>
